<svg width="60" height="60" viewBox="0 0 60 60" fill="none" xmlns="http://www.w3.org/2000/svg">
<path d="M39.3875 35.6375H37.4125L36.7125 34.9625C39.1625 32.1125 40.6375 28.4125 40.6375 24.3875C40.6375 15.4125 33.3625 8.13745 24.3875 8.13745C15.4125 8.13745 8.13745 15.4125 8.13745 24.3875C8.13745 33.3625 15.4125 40.6375 24.3875 40.6375C28.4125 40.6375 32.1125 39.1625 34.9625 36.7125L35.6375 37.4125V39.3875L48.1375 51.8625L51.8625 48.1375L39.3875 35.6375ZM24.3875 35.6375C18.1625 35.6375 13.1375 30.6125 13.1375 24.3875C13.1375 18.1625 18.1625 13.1375 24.3875 13.1375C30.6125 13.1375 35.6375 18.1625 35.6375 24.3875C35.6375 30.6125 30.6125 35.6375 24.3875 35.6375Z" fill="white"/>
</svg>
