<svg width="24" height="24" viewBox="0 0 24 24" fill="none" xmlns="http://www.w3.org/2000/svg">
<path fill-rule="evenodd" clip-rule="evenodd" d="M20 4C21.1 4 21.9902 4.9 21.9902 6V10C20.8902 10 20 10.9 20 12C20 13.1 20.89 14 22 14V18C22 19.1 21.1 20 20 20H4C2.9 20 2 19.1 2 18V14C3.11 14 4 13.1 4 12C4 10.9 3.10977 10 2.00977 10V6C2.00977 4.9 2.9 4 4 4H20ZM4 6L4.00977 8.54004C5.19977 9.23004 6 10.52 6 12C6 13.47 5.18999 14.77 4 15.46V18H20V15.46C18.81 14.77 18 13.47 18 12C18 10.52 18.8002 9.23004 19.9902 8.54004L20 6H4Z" fill="black"/>
</svg>
